<svg width="95" height="95" viewBox="0 0 95 95" fill="none" xmlns="http://www.w3.org/2000/svg">
<circle cx="47.5" cy="47.5" r="47.5" fill="#0259DE"/>
<g clip-path="url(#clip0_70_4)">
<path d="M58.0227 34.1136C57.7955 31.6136 56.7841 29.6705 54.9886 28.2841C53.2159 26.875 50.6818 26.1705 47.3864 26.1705C45.2045 26.1705 43.3864 26.4545 41.9318 27.0227C40.4773 27.5909 39.3864 28.375 38.6591 29.375C37.9318 30.3523 37.5568 31.4773 37.5341 32.75C37.4886 33.7955 37.6932 34.7159 38.1477 35.5114C38.625 36.3068 39.3068 37.0114 40.1932 37.625C41.1023 38.2159 42.1932 38.7386 43.4659 39.1932C44.7386 39.6477 46.1705 40.0455 47.7614 40.3864L53.7614 41.75C57.2159 42.5 60.2614 43.5 62.8977 44.75C65.5568 46 67.7841 47.4886 69.5795 49.2159C71.3977 50.9432 72.7727 52.9318 73.7045 55.1818C74.6364 57.4318 75.1136 59.9545 75.1364 62.75C75.1136 67.1591 74 70.9432 71.7955 74.1023C69.5909 77.2614 66.4205 79.6818 62.2841 81.3636C58.1705 83.0455 53.2045 83.8864 47.3864 83.8864C41.5455 83.8864 36.4545 83.0114 32.1136 81.2614C27.7727 79.5114 24.3977 76.8523 21.9886 73.2841C19.5795 69.7159 18.3409 65.2045 18.2727 59.75H34.4318C34.5682 62 35.1705 63.875 36.2386 65.375C37.3068 66.875 38.7727 68.0114 40.6364 68.7841C42.5227 69.5568 44.7045 69.9432 47.1818 69.9432C49.4545 69.9432 51.3864 69.6364 52.9773 69.0227C54.5909 68.4091 55.8295 67.5568 56.6932 66.4659C57.5568 65.375 58 64.125 58.0227 62.7159C58 61.3977 57.5909 60.2727 56.7955 59.3409C56 58.3864 54.7727 57.5682 53.1136 56.8864C51.4773 56.1818 49.3864 55.5341 46.8409 54.9432L39.5455 53.2386C33.5 51.8523 28.7386 49.6136 25.2613 46.5227C21.7841 43.4091 20.0568 39.2045 20.0795 33.9091C20.0568 29.5909 21.2159 25.8068 23.5568 22.5568C25.8977 19.3068 29.1364 16.7727 33.2727 14.9546C37.4091 13.1364 42.125 12.2273 47.4205 12.2273C52.8295 12.2273 57.5227 13.1477 61.5 14.9886C65.5 16.8068 68.6023 19.3636 70.8068 22.6591C73.0114 25.9545 74.1364 29.7727 74.1818 34.1136H58.0227Z" fill="#F6F9FB"/>
<path d="M55.3201 33.9999V61.4999" stroke="#0259DE" stroke-width="5"/>
</g>
<ellipse cx="47.5" cy="34" rx="3.5" ry="2" fill="#F6F9FB"/>
<defs>
<clipPath id="clip0_70_4">
<rect width="58" height="72" fill="white" transform="translate(18 12)"/>
</clipPath>
</defs>
</svg>
