<svg width="158" height="49" viewBox="0 0 158 49" fill="none" xmlns="http://www.w3.org/2000/svg">
<g clip-path="url(#clip0_37_107)">
<path d="M27.0908 16C26.9696 14.4848 26.4014 13.303 25.3863 12.4545C24.3863 11.6061 22.8635 11.1818 20.8181 11.1818C19.5151 11.1818 18.4469 11.3409 17.6135 11.6591C16.7954 11.9621 16.1893 12.3788 15.7954 12.9091C15.4014 13.4394 15.1969 14.0455 15.1817 14.7273C15.1514 15.2879 15.2499 15.7955 15.4772 16.25C15.7196 16.6894 16.0984 17.0909 16.6135 17.4545C17.1287 17.803 17.7878 18.1212 18.5908 18.4091C19.3938 18.697 20.3484 18.9545 21.4544 19.1818L25.2726 20C27.8484 20.5455 30.0529 21.2652 31.8863 22.1591C33.7196 23.053 35.2196 24.1061 36.3863 25.3182C37.5529 26.5152 38.409 27.8636 38.9544 29.3636C39.5151 30.8636 39.8029 32.5 39.8181 34.2727C39.8029 37.3333 39.0378 39.9242 37.5226 42.0455C36.0075 44.1667 33.8408 45.7803 31.0226 46.8864C28.2196 47.9924 24.8484 48.5455 20.909 48.5455C16.8635 48.5455 13.3332 47.947 10.3181 46.75C7.31811 45.553 4.98478 43.7121 3.31811 41.2273C1.6666 38.7273 0.833266 35.5303 0.818115 31.6364H12.8181C12.8938 33.0606 13.2499 34.2576 13.8863 35.2273C14.5226 36.197 15.4166 36.9318 16.5681 37.4318C17.7347 37.9318 19.1211 38.1818 20.7272 38.1818C22.0757 38.1818 23.2044 38.0152 24.1135 37.6818C25.0226 37.3485 25.712 36.8864 26.1817 36.2955C26.6514 35.7045 26.8938 35.0303 26.909 34.2727C26.8938 33.5606 26.659 32.9394 26.2044 32.4091C25.7651 31.8636 25.0378 31.3788 24.0226 30.9545C23.0075 30.5152 21.6363 30.1061 19.909 29.7273L15.2726 28.7273C11.1514 27.8333 7.90145 26.3409 5.52266 24.25C3.15902 22.1439 1.98478 19.2727 1.99993 15.6364C1.98478 12.6818 2.77266 10.0985 4.36357 7.88636C5.96963 5.65909 8.18932 3.92424 11.0226 2.68182C13.8711 1.43939 17.1363 0.81818 20.8181 0.81818C24.5757 0.81818 27.8257 1.44697 30.5681 2.70454C33.3105 3.96212 35.4241 5.73485 36.909 8.02273C38.409 10.2955 39.1666 12.9545 39.1817 16H27.0908ZM53.9118 32.6591V48H44.1107V20.7273H53.4147V25.9119H53.6988C54.2906 24.1837 55.3323 22.8284 56.8238 21.8459C58.3271 20.8634 60.079 20.3722 62.0794 20.3722C64.0089 20.3722 65.6838 20.8161 67.1043 21.7038C68.5366 22.5798 69.6434 23.7872 70.4246 25.326C71.2177 26.8648 71.6083 28.6226 71.5965 30.5994V48H61.7954V32.6591C61.8072 31.3097 61.4639 30.2502 60.7655 29.4808C60.079 28.7114 59.1202 28.3267 57.8891 28.3267C57.0842 28.3267 56.3799 28.5043 55.7762 28.8594C55.1843 29.2027 54.7286 29.6998 54.409 30.3509C54.0894 30.9901 53.9237 31.7595 53.9118 32.6591ZM84.0343 48.4261C82.2943 48.4261 80.7555 48.142 79.4179 47.5739C78.0921 46.9938 77.0504 46.1179 76.2929 44.946C75.5353 43.7741 75.1565 42.2827 75.1565 40.4716C75.1565 38.9801 75.411 37.7076 75.92 36.6541C76.429 35.5888 77.1392 34.7188 78.0507 34.044C78.9621 33.3693 80.0216 32.8544 81.2289 32.4993C82.4482 32.1442 83.7621 31.9134 85.1707 31.8068C86.6977 31.6884 87.9228 31.5464 88.8461 31.3807C89.7813 31.2031 90.456 30.9605 90.8703 30.6527C91.2846 30.3331 91.4917 29.9129 91.4917 29.392V29.321C91.4917 28.6108 91.2195 28.0663 90.675 27.6875C90.1305 27.3087 89.4321 27.1193 88.5798 27.1193C87.6447 27.1193 86.8812 27.3265 86.2893 27.7408C85.7093 28.1432 85.3601 28.7647 85.2417 29.6051H76.2218C76.3402 27.9479 76.867 26.4209 77.8021 25.0241C78.7491 23.6155 80.1281 22.491 81.9392 21.6506C83.7503 20.7983 86.0111 20.3722 88.7218 20.3722C90.675 20.3722 92.4269 20.603 93.9775 21.0646C95.5282 21.5144 96.848 22.1477 97.937 22.9645C99.0261 23.7694 99.8547 24.7164 100.423 25.8054C101.003 26.8826 101.293 28.0545 101.293 29.321V48H92.1309V44.1648H91.9179C91.3734 45.1828 90.7105 46.0054 89.9292 46.6328C89.1598 47.2602 88.278 47.7159 87.2836 48C86.3012 48.2841 85.2181 48.4261 84.0343 48.4261ZM87.2304 42.2472C87.9761 42.2472 88.6745 42.0933 89.3255 41.7855C89.9884 41.4777 90.527 41.0339 90.9413 40.4538C91.3556 39.8738 91.5628 39.1695 91.5628 38.3409V36.0682C91.3023 36.1747 91.0242 36.2753 90.7282 36.37C90.4441 36.4647 90.1364 36.5535 89.8049 36.6364C89.4853 36.7192 89.1421 36.7962 88.7751 36.8672C88.42 36.9382 88.0471 37.0033 87.6565 37.0625C86.8989 37.1809 86.2775 37.3762 85.7922 37.6484C85.3187 37.9089 84.9636 38.2344 84.7268 38.625C84.5019 39.0038 84.3895 39.4299 84.3895 39.9034C84.3895 40.661 84.6558 41.241 85.1885 41.6435C85.7211 42.0459 86.4018 42.2472 87.2304 42.2472ZM106.49 48V1.45454H126.581C130.036 1.45454 133.058 2.13636 135.649 3.5C138.24 4.86363 140.255 6.7803 141.695 9.25C143.134 11.7197 143.854 14.6061 143.854 17.9091C143.854 21.2424 143.111 24.1288 141.627 26.5682C140.157 29.0076 138.089 30.8864 135.422 32.2045C132.771 33.5227 129.672 34.1818 126.127 34.1818H114.127V24.3636H123.581C125.066 24.3636 126.331 24.1061 127.377 23.5909C128.437 23.0606 129.248 22.3106 129.808 21.3409C130.384 20.3712 130.672 19.2273 130.672 17.9091C130.672 16.5758 130.384 15.4394 129.808 14.5C129.248 13.5455 128.437 12.8182 127.377 12.3182C126.331 11.803 125.066 11.5455 123.581 11.5455H119.127V48H106.49ZM147.976 48V20.7273H157.777V48H147.976ZM152.5 10.4034C151.174 10.4034 150.037 9.96544 149.091 9.08944C148.144 8.21354 147.67 7.16004 147.67 5.92894C147.67 4.69794 148.144 3.64444 149.091 2.76844C150.037 1.89251 151.174 1.45454 152.5 1.45454C153.837 1.45454 154.974 1.89251 155.909 2.76844C156.856 3.64444 157.329 4.69794 157.329 5.92894C157.329 7.16004 156.856 8.21354 155.909 9.08944C154.974 9.96544 153.837 10.4034 152.5 10.4034Z" fill="#0259DE"/>
<circle cx="152.5" cy="6.5" r="5.5" fill="#FF6647"/>
</g>
<defs>
<clipPath id="clip0_37_107">
<rect width="158" height="49" fill="white"/>
</clipPath>
</defs>
</svg>
